<?xml version="1.0" standalone="no"?><!DOCTYPE svg PUBLIC "-//W3C//DTD SVG 1.1//EN" "http://www.w3.org/Graphics/SVG/1.1/DTD/svg11.dtd"><svg t="1588079571836" class="icon" viewBox="0 0 1024 1024" version="1.1" xmlns="http://www.w3.org/2000/svg" p-id="2172" xmlns:xlink="http://www.w3.org/1999/xlink" width="200" height="200"><defs><style type="text/css"></style></defs><path d="M512 113.777778c-219.591111 0-398.222222 178.631111-398.222222 398.222222s178.631111 398.222222 398.222222 398.222222 398.222222-178.631111 398.222222-398.222222-178.631111-398.222222-398.222222-398.222222z m0 716.8c-175.217778 0-318.577778-143.36-318.577778-318.577778s143.36-318.577778 318.577778-318.577778 318.577778 143.36 318.577778 318.577778-143.36 318.577778-318.577778 318.577778z" p-id="2173"></path><path d="M615.537778 502.897778c18.204444 0 32.995556-13.653333 32.995555-32.995556 0-18.204444-13.653333-32.995556-32.995555-32.995555h-34.133334l38.684445-47.786667c10.24-14.791111 7.964444-35.271111-5.688889-45.511111-14.791111-10.24-35.271111-7.964444-44.373333 4.551111l-55.751111 69.404444-55.751112-68.266666c-5.688889-6.826667-13.653333-11.377778-22.755555-12.515556-9.102222-1.137778-17.066667 2.275556-23.893333 7.964445-6.826667 5.688889-10.24 13.653333-11.377778 22.755555-1.137778 9.102222 2.275556 17.066667 7.964444 23.893334l37.546667 46.648888h-34.133333c-18.204444 0-32.995556 13.653333-32.995556 32.995556 0 18.204444 13.653333 32.995556 32.995556 32.995556h69.404444v36.408888H409.6c-18.204444 0-32.995556 13.653333-32.995556 32.995556s13.653333 32.995556 32.995556 32.995556h69.404444v69.404444c0 18.204444 13.653333 32.995556 32.995556 32.995556 18.204444 0 32.995556-13.653333 32.995556-32.995556v-69.404444H614.4c18.204444 0 32.995556-13.653333 32.995556-32.995556s-13.653333-32.995556-32.995556-32.995556h-68.266667v-36.408888h69.404445z" p-id="2174"></path></svg>